<svg width="41" height="41" viewBox="0 0 41 41" fill="none" xmlns="http://www.w3.org/2000/svg">
<path d="M31.9798 26.7976C31.5989 26.7997 31.2194 26.8437 30.8482 26.9288L23.5994 13.12C24.2424 12.6465 24.7657 12.0291 25.1273 11.3172C25.489 10.6052 25.679 9.81851 25.6822 9.01999C25.6822 7.64553 25.1362 6.32736 24.1643 5.35548C23.1924 4.38359 21.8743 3.83759 20.4998 3.83759C19.1253 3.83759 17.8072 4.38359 16.8353 5.35548C15.8634 6.32736 15.3174 7.64553 15.3174 9.01999C15.3206 9.81851 15.5106 10.6052 15.8722 11.3172C16.2339 12.0291 16.7572 12.6465 17.4002 13.12L10.1514 26.9288C9.1379 26.6984 8.07856 26.7781 7.11094 27.1575C6.14332 27.5369 5.31213 28.1985 4.72532 29.0563C4.13851 29.9142 3.8232 30.9286 3.82033 31.968C3.81746 33.0073 4.12717 34.0235 4.70923 34.8846C5.2913 35.7456 6.11882 36.4118 7.08433 36.7965C8.04984 37.1813 9.10873 37.2668 10.1235 37.042C11.1382 36.8173 12.0619 36.2926 12.7747 35.5361C13.4874 34.7796 13.9562 33.8263 14.1202 32.8H26.8794C27.0451 33.7742 27.486 34.6807 28.1499 35.4126C28.8138 36.1445 29.6731 36.6714 30.6266 36.9311C31.58 37.1907 32.5879 37.1724 33.5312 36.8782C34.4746 36.584 35.3142 36.0262 35.9511 35.2706C36.5879 34.515 36.9954 33.5931 37.1256 32.6135C37.2558 31.6339 37.1032 30.6375 36.6858 29.7418C36.2684 28.8461 35.6036 28.0884 34.7698 27.558C33.936 27.0277 32.968 26.7467 31.9798 26.7484V26.7976ZM16.9574 9.01999C16.9574 8.31937 17.1652 7.63448 17.5544 7.05193C17.9436 6.46939 18.4969 6.01535 19.1442 5.74723C19.7915 5.47912 20.5037 5.40897 21.1909 5.54565C21.878 5.68234 22.5092 6.01972 23.0046 6.51513C23.5001 7.01054 23.8374 7.64174 23.9741 8.3289C24.1108 9.01606 24.0407 9.72831 23.7725 10.3756C23.5044 11.0229 23.0504 11.5761 22.4678 11.9654C21.8853 12.3546 21.2004 12.5624 20.4998 12.5624C19.5603 12.5624 18.6593 12.1892 17.9949 11.5248C17.3306 10.8605 16.9574 9.95949 16.9574 9.01999ZM9.01979 35.5224C8.31917 35.5224 7.63429 35.3146 7.05174 34.9254C6.4692 34.5361 6.01516 33.9829 5.74704 33.3356C5.47893 32.6883 5.40878 31.9761 5.54546 31.2889C5.68215 30.6017 6.01953 29.9705 6.51494 29.4751C7.01035 28.9797 7.64155 28.6423 8.32871 28.5057C9.01586 28.369 9.72812 28.4391 10.3754 28.7072C11.0227 28.9753 11.5759 29.4294 11.9652 30.0119C12.3544 30.5945 12.5622 31.2794 12.5622 31.98C12.5622 32.9195 12.189 33.8205 11.5246 34.4848C10.8603 35.1492 9.9593 35.5224 9.01979 35.5224ZM26.8794 31.16H14.1202C14.0036 30.4158 13.7241 29.7065 13.3017 29.0829C12.8793 28.4592 12.3244 27.9364 11.6766 27.552L18.8434 13.9072C19.9026 14.2933 21.0641 14.2933 22.1234 13.9072L29.2902 27.552C28.6485 27.94 28.1 28.4643 27.6834 29.0878C27.2668 29.7113 26.9923 30.4187 26.8794 31.16ZM31.9798 35.4732C31.2792 35.4732 30.5943 35.2654 30.0117 34.8762C29.4292 34.4869 28.9752 33.9337 28.707 33.2864C28.4389 32.6391 28.3688 31.9269 28.5055 31.2397C28.6421 30.5525 28.9795 29.9213 29.4749 29.4259C29.9704 28.9305 30.6015 28.5931 31.2887 28.4565C31.9759 28.3198 32.6881 28.3899 33.3354 28.658C33.9827 28.9262 34.5359 29.3802 34.9252 29.9627C35.3144 30.5453 35.5222 31.2302 35.5222 31.9308C35.5287 32.4001 35.4419 32.866 35.2668 33.3015C35.0917 33.737 34.8318 34.1333 34.5022 34.4675C34.1726 34.8017 33.7799 35.067 33.3469 35.2481C32.9138 35.4292 32.4492 35.5224 31.9798 35.5224V35.4732Z" fill="white"/>
</svg>
