<svg width="36" height="35" viewBox="0 0 36 35" fill="none" xmlns="http://www.w3.org/2000/svg">
<path d="M17.0543 34.4104C15.0251 34.0118 12.998 33.3438 10.973 32.4063C8.94803 31.4688 7.13553 30.1639 5.53553 28.4917C3.93553 26.8195 2.63414 24.7591 1.63136 22.3104C0.628581 19.8618 0.128581 16.9306 0.131359 13.5167V13.1792C0.131359 12.8 0.248026 12.4945 0.481359 12.2625C0.713304 12.0292 1.01886 11.9125 1.39803 11.9125H1.65428C3.10428 11.9125 4.8265 12.2584 6.82094 12.95C8.81678 13.6417 10.5105 14.4924 11.9022 15.5021C12.0702 13.1729 12.5939 10.741 13.473 8.20628C14.3522 5.67156 15.4834 3.40419 16.8668 1.4042C17.1765 0.973639 17.5543 0.758362 18.0001 0.758362C18.4459 0.758362 18.8237 0.973639 19.1334 1.4042C20.5168 3.40419 21.648 5.68545 22.5272 8.24795C23.4064 10.8091 23.93 13.2542 24.098 15.5834C25.4091 14.6528 27.0355 13.8285 28.9772 13.1104C30.9189 12.3924 32.6821 11.9931 34.2668 11.9125L34.6334 11.8729C34.9946 11.8466 35.3043 11.9618 35.5626 12.2188C35.8196 12.4771 35.9348 12.7868 35.9084 13.1479L35.8689 13.5959C35.6814 16.3153 35.2279 18.7722 34.5084 20.9667C33.789 23.1625 32.789 25.1097 31.5084 26.8084C30.2265 28.507 28.6536 29.9653 26.7897 31.1834C24.9258 32.4014 22.7654 33.4097 20.3084 34.2084C19.8571 34.3584 19.3147 34.4466 18.6814 34.4729C18.048 34.4993 17.5064 34.4785 17.0564 34.4104M18.6959 32.5625C18.3154 26.8334 16.5883 22.4847 13.5147 19.5167C10.4411 16.5486 6.68275 14.7167 2.23969 14.0209C2.17025 14.0209 2.17025 14.0209 2.23969 14.0209C2.62164 19.8889 4.4008 24.2986 7.57719 27.25C10.7536 30.2014 14.4605 31.9723 18.698 32.5625C18.7675 32.5973 18.7675 32.6063 18.698 32.5896C18.6286 32.5729 18.6286 32.5639 18.698 32.5625M13.9376 16.9375C14.7126 17.582 15.4619 18.3785 16.1855 19.3271C16.9091 20.2771 17.514 21.1868 18.0001 22.0563C18.4682 21.1868 19.0689 20.2771 19.8022 19.3271C20.5341 18.3771 21.2876 17.5806 22.0626 16.9375C22.0473 14.825 21.6834 12.5986 20.9709 10.2584C20.2598 7.91947 19.2696 5.68544 18.0001 3.55628C16.7321 5.68544 15.7418 7.91322 15.0293 10.2396C14.3168 12.566 13.9529 14.7986 13.9376 16.9375ZM19.0897 24.5104C19.5064 25.6216 19.8487 26.7431 20.1168 27.875C20.3848 29.007 20.6064 30.3375 20.7814 31.8667C22.3786 31.3153 23.9251 30.5764 25.4209 29.65C26.9168 28.7236 28.248 27.5459 29.4147 26.1167C30.5814 24.6875 31.5591 22.9841 32.348 21.0063C33.1369 19.0285 33.6084 16.7 33.7626 14.0209C33.7626 13.9514 33.7626 13.9514 33.7626 14.0209C30.3918 14.507 27.3932 15.6924 24.7668 17.5771C22.1404 19.4618 20.248 21.7729 19.0897 24.5104Z" fill="white"/>
</svg>
