<svg width="10" height="14" viewBox="0 0 10 14" fill="none" xmlns="http://www.w3.org/2000/svg">
<path d="M5 6.66683C4.55797 6.66683 4.13405 6.49123 3.82149 6.17867C3.50893 5.86611 3.33333 5.44219 3.33333 5.00016C3.33333 4.55814 3.50893 4.13421 3.82149 3.82165C4.13405 3.50909 4.55797 3.3335 5 3.3335C5.44203 3.3335 5.86595 3.50909 6.17851 3.82165C6.49107 4.13421 6.66667 4.55814 6.66667 5.00016C6.66667 5.21903 6.62356 5.43576 6.5398 5.63797C6.45604 5.84018 6.33328 6.02391 6.17851 6.17867C6.02375 6.33344 5.84002 6.4562 5.63781 6.53996C5.4356 6.62372 5.21887 6.66683 5 6.66683ZM5 0.333496C3.76232 0.333496 2.57534 0.825161 1.70017 1.70033C0.824999 2.5755 0.333334 3.76249 0.333334 5.00016C0.333334 8.50016 5 13.6668 5 13.6668C5 13.6668 9.66667 8.50016 9.66667 5.00016C9.66667 3.76249 9.175 2.5755 8.29983 1.70033C7.42466 0.825161 6.23768 0.333496 5 0.333496Z" fill="#E5E5E5"/>
</svg>
